<?xml version="1.0" standalone="no"?>
<!DOCTYPE svg PUBLIC "-//W3C//DTD SVG 20010904//EN"
 "http://www.w3.org/TR/2001/REC-SVG-20010904/DTD/svg10.dtd">
<svg version="1.0" xmlns="http://www.w3.org/2000/svg"
 width="107.000000pt" height="107.000000pt" viewBox="0 0 107.000000 107.000000"
 preserveAspectRatio="xMidYMid meet">
<metadata>
Created by potrace 1.11, written by Peter Selinger 2001-2013
</metadata>
<g transform="translate(0.000000,107.000000) scale(0.100000,-0.100000)"
fill="#000000" stroke="none">
<path d="M232 1013 c-98 -152 -152 -377 -152 -629 0 -121 4 -144 26 -144 11 0
14 23 14 113 0 116 18 259 45 361 18 70 85 216 107 233 12 11 56 3 234 -38
120 -28 221 -52 222 -54 2 -2 -12 -24 -31 -50 -50 -64 -122 -216 -147 -305
-35 -126 -52 -273 -44 -383 7 -99 11 -111 37 -102 11 5 15 35 20 128 7 134 30
244 78 367 17 44 32 80 33 80 4 0 101 -33 104 -35 1 -1 -16 -41 -39 -89 -49
-105 -85 -243 -95 -360 l-7 -86 35 0 36 0 7 56 c23 186 132 407 241 491 19 14
34 29 34 33 0 4 -56 24 -125 45 -77 24 -125 44 -125 52 0 7 36 60 81 119 44
58 79 107 77 109 -4 3 -420 93 -609 131 -23 4 -30 -2 -57 -43z"/>
<path d="M260 818 c-63 -129 -91 -254 -97 -435 -5 -132 -4 -153 9 -153 12 0
16 22 21 113 6 133 28 244 68 347 42 106 48 114 96 101 21 -5 63 -15 94 -21
l56 -11 -28 -82 c-71 -209 -86 -452 -39 -628 13 -46 45 -57 36 -12 -24 127
-13 305 30 463 25 95 86 236 124 290 16 23 18 31 8 35 -14 5 -325 75 -332 75
-3 0 -23 -37 -46 -82z"/>
</g>
</svg>
